<svg width="320" height="56" viewBox="0 0 320 56" fill="none" xmlns="http://www.w3.org/2000/svg">
<g clip-path="url(#clip0_515_155)">
<path d="M205.646 50.4012C205.639 50.4359 205.619 50.4552 205.586 50.4603C205.52 50.4675 205.483 50.5031 205.478 50.5735L205.485 50.5673C205.386 50.5735 205.359 50.6428 205.353 50.7304L205.34 50.7467C205.132 50.7243 204.979 50.8129 204.814 50.9464C204.396 51.2858 203.976 51.6322 203.517 51.9033C202.229 52.6665 200.876 53.2453 199.383 53.4237C197.557 53.6417 195.814 53.3798 194.152 52.5544C193.816 52.3883 193.508 52.157 193.137 52.0735C193.001 51.9909 192.874 51.8798 192.728 51.8299C192.273 51.6771 192.002 51.1645 191.48 51.1502C191.282 50.8129 190.772 50.8038 190.692 50.3421C191.322 50.4196 191.825 50.8211 192.386 51.0718C193.947 51.7688 195.442 52.6696 197.179 52.8316C198.051 52.9131 198.953 53.0324 199.787 52.7307C200.656 52.4169 201.474 51.944 202.185 51.3112C203.566 50.0823 204.442 48.6047 204.396 46.6298C204.38 45.943 204.141 45.3143 204.072 44.6468L204.086 44.4369C204.117 44.4461 204.167 44.4461 204.177 44.4664C204.69 45.5497 205.029 46.6604 204.908 47.9046C204.859 48.408 204.659 48.8442 204.562 49.319C204.389 49.5575 204.219 49.798 204.043 50.0344C203.635 50.5796 203.225 51.1217 202.815 51.6659C202.807 51.6801 202.8 51.6944 202.792 51.7086C202.799 51.6944 202.807 51.6801 202.814 51.6659C203.768 51.2226 204.478 50.5072 204.969 49.5504C205.119 49.4393 205.208 49.2793 205.305 49.1213C205.97 48.0371 205.911 46.8438 205.786 45.6424C205.773 45.5181 205.703 45.3887 205.878 45.2613C206.257 45.9715 206.249 46.7246 206.252 47.4756C206.273 47.8109 206.118 48.1186 206.06 48.5884C206.354 48.1828 206.481 47.8598 206.537 47.5011C206.636 47.3839 206.681 47.2433 206.717 47.0925C207.003 45.8625 207.022 44.6234 206.809 43.3832C206.629 42.3428 206.16 41.4807 205.237 40.959C204.578 40.587 203.849 40.6257 203.141 40.6675C201.969 40.7358 200.897 40.4382 199.887 39.8462C198.937 39.0687 197.985 38.2922 197.035 37.5147C197.654 37.4729 198.103 37.8214 198.6 38.0313L198.602 38.0211C198.596 38.1098 198.609 38.1872 198.71 38.2096C199.232 38.4776 199.7 38.8333 200.18 39.1736C200.857 39.6526 201.589 40.0031 202.424 40.0551C202.841 40.2671 203.286 40.1376 203.716 40.1448C205.355 40.1733 206.502 40.9692 207.081 42.5548C207.519 43.7531 207.451 44.9984 207.373 46.2487C207.318 47.1251 206.967 47.9036 206.733 48.7209L206.733 48.7199C206.474 48.8819 206.39 49.1468 206.346 49.4362L206.345 49.4362C206.316 49.478 206.285 49.5188 206.256 49.5605C206.258 49.5921 206.246 49.6166 206.219 49.6319C206.077 49.6451 206.036 49.7328 206.059 49.8673C206.056 49.9029 206.037 49.9243 206.005 49.9325C205.775 49.9977 205.644 50.1444 205.645 50.4012L205.646 50.4012Z" fill="black"/>
<path d="M181.063 38.8447C180.096 38.7896 179.16 38.6011 178.306 38.1059C176.983 37.3375 176.046 36.1962 175.521 34.7268C174.76 32.6011 174.854 30.4601 175.656 28.3752C176.366 26.5288 178.362 25.7767 180.079 26.6357C181.219 27.2064 182.026 28.148 182.695 29.2322C183.77 30.9737 184.616 32.809 184.809 34.9102C184.988 36.8688 184.117 38.2771 182.419 38.7367C181.975 38.8569 181.518 38.8712 181.063 38.8457L181.063 38.8447ZM179.681 26.9894C179.64 26.9608 179.599 26.9333 179.557 26.9048C179.488 26.8783 179.42 26.8508 179.352 26.8243C179.307 26.7356 179.236 26.7224 179.151 26.7499C178.799 26.6918 178.448 26.6989 178.096 26.7499C177.468 26.7906 177.024 27.1891 176.623 27.6252C175.972 28.3324 175.723 29.2394 175.553 30.1738C175.392 30.7485 175.366 31.3548 175.378 31.9337C175.406 33.1422 175.697 34.311 176.246 35.3881C176.867 36.6069 177.725 37.5311 179.087 37.8542C180.301 38.1426 181.912 37.5383 182.652 36.4958C183.547 35.2363 183.269 33.7648 183.301 32.381C183.323 31.4506 182.945 30.5274 182.459 29.7071C181.965 28.8745 181.486 28.0247 180.632 27.5172C180.33 27.3103 180.058 27.0495 179.681 26.9904L179.681 26.9894ZM183.763 32.5135C184.239 35.2822 183.617 37.4313 180.622 38.3372C181.408 38.539 182.002 38.3413 182.592 38.2139C183.48 38.0223 184.271 37.094 184.332 36.1534C184.412 34.9133 184.318 33.6904 183.762 32.5145L183.763 32.5135Z" fill="black"/>
<path d="M210.359 32.5388C209.366 33.9624 208.188 35.2046 206.729 36.0881C204.838 37.2324 202.693 36.1655 202.185 33.8523C201.515 30.8085 202.937 26.2127 205.839 24.3968C206.145 24.2052 206.448 24.0035 206.812 23.9485C206.893 23.9648 206.966 23.9556 207.012 23.872C207.066 23.8588 207.118 23.8466 207.172 23.8333C207.266 23.8639 207.353 23.8659 207.414 23.7671C207.535 23.6733 207.673 23.6713 207.814 23.6896C207.88 23.7752 207.939 23.763 207.992 23.6743C208.092 23.6703 208.192 23.6662 208.293 23.6621C208.478 23.815 208.671 23.7925 208.868 23.6927C208.934 23.7019 209.001 23.711 209.066 23.7212C209.097 23.8109 209.169 23.8302 209.245 23.8659C210.024 24.2307 210.778 24.6893 211.125 25.5218C211.94 27.4814 211.8 29.4186 210.804 31.2905C210.596 31.6808 210.31 32.0477 210.359 32.5409L210.359 32.5388ZM206.723 24.4162C206.581 24.4834 206.388 24.4661 206.331 24.673L206.334 24.6689C206.135 24.6261 205.992 24.7474 205.849 24.8564C205.069 25.4525 204.448 26.2066 203.897 27.0259C203.783 27.1961 203.641 27.3846 203.691 27.6292L203.694 27.6231C203.662 27.6261 203.629 27.6302 203.597 27.6332C203.272 28.0704 203.135 28.5942 202.984 29.1068C202.618 30.3438 202.438 31.5911 202.909 32.8496C202.964 33.5089 203.291 34.0378 203.755 34.4332C204.143 34.7634 204.592 35.0894 205.164 34.8683C205.368 35.0426 205.603 34.9875 205.812 34.9172C207.556 34.3343 208.956 33.2328 210.03 31.7104C210.965 30.3836 211.383 28.8703 211.213 27.2185C211.12 26.3207 210.92 25.4536 210.149 24.8809C209.525 24.2226 208.754 24.0198 207.895 24.0901C207.471 24.0718 207.106 24.2796 206.722 24.4182L206.723 24.4162ZM202.606 33.6343C202.898 34.7776 203.435 35.6754 204.67 35.8751C205.573 35.9923 206.399 35.7661 207.153 35.2474C207.256 35.1761 207.423 35.0894 207.354 34.9478C207.273 34.7797 207.129 34.9233 207.02 34.9702C206.299 35.2769 205.571 35.5449 204.773 35.4726C203.826 35.1812 203.091 34.6299 202.721 33.6373C202.629 33.0983 202.456 32.5725 202.479 32.013C202.463 32.5602 202.299 33.1197 202.605 33.6353L202.606 33.6343Z" fill="black"/>
<path d="M186.481 15.7363C186.582 15.7536 186.683 15.7709 186.782 15.7882C186.818 15.8932 186.867 15.9513 186.967 15.8524C187.202 15.8565 187.397 15.9676 187.583 16.1011C187.598 16.1174 187.617 16.1255 187.638 16.1265C188.202 16.3477 188.625 16.7675 188.997 17.2332C190.214 18.7577 190.963 20.5043 191.224 22.473C191.182 22.581 191.174 22.6799 191.292 22.7441C191.402 23.0213 191.395 23.3168 191.409 23.6082C191.42 23.6561 191.432 23.703 191.445 23.7509C191.457 23.8895 191.469 24.027 191.481 24.1656C191.35 24.2288 191.29 24.3378 191.286 24.4866C191.271 25.0012 191.184 25.5107 191.134 26.0152C191.047 26.8915 190.765 27.6813 190.471 28.4751C190.194 29.219 189.687 29.7876 188.989 30.133C188.879 30.187 188.636 30.4581 188.539 30.0709C188.602 30.0321 188.665 29.9944 188.728 29.9557C189.231 29.8762 189.499 29.4839 189.74 29.0875C190.461 27.8983 190.815 26.5685 190.96 25.1887C191.016 24.6568 191.108 24.0872 190.874 23.5562C190.846 23.2169 190.82 22.8776 190.793 22.5382C190.942 22.3997 190.826 22.3609 190.716 22.3202C190.688 22.1367 190.674 21.9503 190.63 21.7719C190.386 20.7733 190.054 19.8225 189.583 18.8993C189.006 17.7682 188.312 16.8297 187.167 16.309C185.705 15.6446 183.886 16.1204 183.179 17.5501C182.902 17.917 182.718 18.3358 182.546 18.7617C182.323 18.8769 182.323 19.095 182.314 19.309C182.261 19.5668 182.207 19.8256 182.154 20.0834C182.044 20.1221 181.957 20.169 182.085 20.2933C181.993 21.0331 181.919 21.775 181.944 22.523C181.971 24.5345 182.614 26.3504 183.598 28.045C184.068 28.8531 184.605 29.6154 185.409 30.1137C185.542 30.237 185.674 30.3603 185.807 30.4836C186.369 31.147 187.089 31.5597 187.885 31.7971C188.45 31.9652 189.036 32.116 189.642 31.9122C189.969 31.8022 190.148 31.4323 190.514 31.4088C189.88 32.22 188.891 32.4809 187.768 32.0936C186.438 31.6351 185.346 30.7801 184.418 29.7183C182.915 27.9982 181.983 25.9785 181.673 23.6622C181.662 23.5797 181.672 23.4941 181.673 23.4095C181.695 23.2169 181.769 23.0192 181.609 22.849C181.556 22.4363 181.558 22.0236 181.609 21.6109C181.767 21.4448 181.694 21.2502 181.671 21.0617C181.676 20.7539 181.667 20.4431 181.804 20.1568L181.809 20.1283C181.816 20.0783 181.823 20.0284 181.83 19.9785C181.897 19.8623 182.043 19.7685 181.935 19.5994C181.952 19.527 181.969 19.4537 181.986 19.3813C182.093 19.3273 182.097 19.2356 182.07 19.1327C182.065 18.9829 182.106 18.8484 182.195 18.7302L182.2 18.7118C182.213 18.6629 182.226 18.614 182.239 18.5651C182.38 18.5304 182.392 18.4316 182.356 18.3093C182.851 17.1232 183.549 16.1581 184.845 15.8514C184.975 15.9523 185.073 15.938 185.125 15.7638C185.193 15.7536 185.262 15.7444 185.33 15.7342C185.435 15.8422 185.529 15.8321 185.612 15.7057C185.774 15.6547 185.937 15.6517 186.1 15.6965C186.214 15.8514 186.343 15.8453 186.481 15.7342L186.481 15.7363Z" fill="black"/>
<path d="M194.695 28.0723C193.767 27.7289 193.169 27.0146 192.878 26.0812C191.984 23.1983 192.141 20.3308 193.177 17.5173C193.726 16.0224 194.51 14.6854 195.836 13.7815C195.997 13.6715 196.175 13.5869 196.345 13.4911C196.379 13.4769 196.414 13.4626 196.448 13.4473C196.636 13.3199 196.83 13.2109 197.063 13.2099C197.19 13.3026 197.29 13.2914 197.349 13.1284C197.415 13.1171 197.48 13.1059 197.547 13.0947C197.673 13.2109 197.827 13.1518 197.968 13.1681C199.107 13.2924 200.066 13.7958 200.739 14.7578C201.895 16.4127 202.31 18.3651 202.497 20.34C202.628 21.7259 202.571 23.1321 202.263 24.5282C201.825 26.5173 200.846 27.8176 198.847 28.2863C197.661 28.5645 196.539 28.3801 195.393 28.215C195.2 28.1875 194.89 28.1121 195.098 27.7493C195.158 27.7554 195.218 27.7605 195.278 27.7666C195.329 27.9348 195.465 27.9144 195.594 27.9378C196.464 28.0998 197.344 28.0693 198.217 28.0255C199.416 27.9653 200.447 27.5017 201.149 26.4205C201.868 25.3149 202.065 24.0482 202.121 22.7612C202.167 21.7167 202.162 20.6681 202.042 19.6206C201.86 18.0431 201.499 16.5319 200.649 15.1929C200.48 14.9259 200.328 14.6008 199.992 14.4847C199.548 13.8977 198.917 13.6389 198.253 13.5054C197.932 13.4412 197.549 13.3444 197.243 13.6328C197.072 13.6827 196.869 13.6042 196.725 13.7693C196.707 13.7601 196.687 13.7571 196.667 13.7612C196.42 13.807 196.209 13.9344 196.013 14.0852C194.377 15.3345 193.581 17.129 193.038 19.0845C192.578 20.7394 192.533 22.431 192.766 24.1185C192.95 25.4534 193.248 26.771 194.51 27.5292C194.449 27.7564 194.727 27.8563 194.698 28.0723L194.695 28.0723Z" fill="black"/>
<path d="M187.166 39.3141C187.308 39.0543 187.729 39.1093 187.768 38.7333C188.314 38.5611 188.835 38.3451 189.262 37.9293C190.007 37.2048 190.488 36.2876 190.994 35.3878C191.474 34.7438 192.007 34.1691 192.682 33.7279C194.386 32.611 196.501 32.6355 197.996 33.8267C197.833 33.842 197.676 33.8247 197.514 33.7829C196.255 33.4599 195.09 33.6219 193.984 34.3953C193.226 34.9252 192.614 35.6049 192.035 36.2999C191.208 37.2914 190.284 38.0883 189.119 38.5968C188.841 38.718 188.501 38.7669 188.224 39.1195C188.882 39.0064 189.436 38.7873 190.022 38.8352C190.131 38.8444 190.276 38.8189 190.275 38.9932C190.274 39.1287 190.149 39.1175 190.055 39.1368C189.047 39.3437 188.109 39.7615 187.15 40.1345C186.794 40.273 186.473 40.6949 186.008 40.4677C186.392 40.0234 187.009 39.9174 187.373 39.4436C187.472 39.4364 187.623 39.4099 187.591 39.3101C187.553 39.1878 187.439 39.255 187.374 39.3447C187.306 39.3345 187.236 39.3233 187.168 39.3131L187.166 39.3141Z" fill="black"/>
<path d="M193.139 52.0756C193.51 52.1592 193.818 52.3905 194.154 52.5566C195.816 53.382 197.559 53.6439 199.384 53.4258C200.878 53.2475 202.231 52.6687 203.519 51.9055C203.978 51.6334 204.398 51.2879 204.816 50.9486C204.981 50.8141 205.134 50.7254 205.342 50.7489C204.463 51.9391 203.431 52.9591 202.217 53.7744C202.166 53.809 202.107 53.8549 202.039 53.7998C202.039 53.7693 202.039 53.7397 202.039 53.7091C202.052 53.6938 202.065 53.6786 202.078 53.6623L202.033 53.702C201.78 53.6786 201.553 53.7815 201.328 53.8742C200.523 54.2064 199.679 54.3664 198.822 54.4123C196.566 54.5315 194.435 53.9945 192.421 52.9581C192.153 52.8205 191.775 52.789 191.662 52.4007C191.886 52.3824 192.109 52.4027 192.333 52.4109C192.631 52.4211 192.987 52.4883 193.14 52.0777L193.139 52.0756Z" fill="black"/>
<path d="M188.538 30.0698C188.635 30.457 188.877 30.186 188.988 30.132C189.686 29.7865 190.193 29.2179 190.47 28.474C190.764 27.6812 191.046 26.8915 191.133 26.0141C191.183 25.5097 191.27 25.0002 191.285 24.4855C191.289 24.3368 191.349 24.2277 191.48 24.1646C191.718 25.3955 191.779 26.6377 191.694 27.8901C191.639 28.7206 191.505 29.5358 191.213 30.3133C191.121 30.5579 191.048 30.8279 190.823 30.9961C190.617 31.0521 190.588 31.2559 190.503 31.4129L190.513 31.4098C190.147 31.4332 189.968 31.8032 189.641 31.9132C189.036 32.116 188.448 31.9652 187.885 31.7981C187.089 31.5606 186.368 31.1479 185.807 30.4845C186.74 30.5008 187.677 30.561 188.54 30.0708L188.538 30.0698Z" fill="black"/>
<path d="M194.695 28.0726C194.724 27.8566 194.446 27.7567 194.507 27.5295C194.705 27.5977 194.933 27.5814 195.097 27.7486C194.889 28.1113 195.2 28.1867 195.392 28.2142C196.538 28.3793 197.66 28.5648 198.847 28.2856C200.845 27.8168 201.824 26.5166 202.262 24.5274C202.57 23.1314 202.626 21.7251 202.496 20.3392C202.31 18.3644 201.895 16.4119 200.738 14.757C200.066 13.7951 199.106 13.2907 197.967 13.1673C197.826 13.1521 197.672 13.2112 197.546 13.094C198.802 12.7424 200.233 13.3813 201.122 14.6928C201.947 15.9106 202.348 17.3036 202.61 18.7424C203.007 20.918 203.019 23.0875 202.4 25.2326C201.836 27.1911 200.587 28.3304 198.637 28.5628C197.453 28.7034 196.264 28.6871 195.108 28.306C194.959 28.257 194.784 28.2397 194.694 28.0706L194.695 28.0726Z" fill="black"/>
<path d="M197.995 33.8276C196.5 32.6364 194.385 32.6119 192.681 33.7288C192.007 34.171 191.474 34.7447 190.993 35.3888C190.94 35.2767 190.788 35.2359 190.792 35.082C192.263 32.7097 196.103 31.1231 199.131 33.9591C200.402 35.1493 201.127 36.6941 201.755 38.3052C201.681 38.455 201.577 38.5752 201.431 38.6527C201.165 38.3134 201.045 37.8956 200.855 37.5144C200.627 37.0569 200.505 36.5341 200.116 36.1734C199.634 35.1697 198.957 34.3585 197.993 33.8276L197.995 33.8276Z" fill="black"/>
<path d="M180.708 45.1419C180.693 45.0013 180.678 44.8617 180.665 44.721C180.762 44.5651 180.757 44.4082 180.669 44.2503C180.681 44.1443 180.694 44.0373 180.707 43.9313C180.848 43.8508 180.833 43.7255 180.795 43.594C180.731 43.3382 181.018 43.2323 181.028 43.0081C181.16 43.006 181.292 43.004 181.424 43.002C181.386 43.0712 181.348 43.1405 181.311 43.2098C181.285 43.2455 181.258 43.2822 181.233 43.3178C181.23 43.3515 181.224 43.3841 181.216 43.4167C180.95 43.807 180.898 44.2441 180.96 44.7037C181.146 46.0641 181.906 47.1066 182.78 48.042C184.676 50.0719 187.072 51.3478 189.425 52.6806C190.038 53.0587 190.642 53.448 191.202 53.9096C191.124 54.0798 191.03 53.9921 190.928 53.9351C188.25 52.4442 185.483 51.1062 183.183 48.9755C182.193 48.0583 181.312 47.0505 180.834 45.7289C180.807 45.6514 180.805 45.5648 180.791 45.4823C180.831 45.3508 180.851 45.2244 180.708 45.1409L180.708 45.1419Z" fill="black"/>
<path d="M202.038 53.7071C202.038 53.7377 202.039 53.7672 202.038 53.7978C200.753 54.6568 199.311 54.8678 197.826 54.8953C197.37 54.9034 196.915 54.8902 196.465 54.8066C196.44 54.6191 196.296 54.6507 196.173 54.6161C194.932 54.2716 193.661 54.0434 192.469 53.5063C191.708 53.1629 191.051 52.6341 190.3 52.2805C190.236 52.2448 190.172 52.2081 190.108 52.1724L190.112 52.1765C189.929 51.8983 189.644 51.7791 189.362 51.6538C189.16 51.4387 188.952 51.2278 188.758 51.0057C188.663 50.8976 188.518 50.7377 188.611 50.6184C188.739 50.4554 188.889 50.6093 189.026 50.702C189.413 50.9649 189.738 51.3307 190.193 51.4836C190.586 51.9574 191.056 52.2937 191.659 52.3987C191.773 52.7869 192.151 52.8175 192.418 52.9551C194.433 53.9914 196.563 54.5294 198.819 54.4092C199.675 54.3644 200.52 54.2034 201.326 53.8712C201.55 53.7784 201.777 53.6765 202.03 53.6989L202.036 53.7061L202.038 53.7071Z" fill="black"/>
<path d="M201.432 38.6527C201.578 38.5742 201.681 38.454 201.756 38.3052C202.265 39.2284 203.059 39.6167 204.05 39.7817C206.616 40.2097 207.36 41.779 207.581 43.9842C207.729 45.4597 207.57 46.8864 207.012 48.257C206.943 48.4251 206.904 48.6157 206.737 48.7206C206.972 47.9034 207.322 47.1248 207.377 46.2485C207.455 44.9981 207.523 43.7529 207.085 42.5545C206.505 40.9679 205.36 40.173 203.719 40.1445C203.29 40.1374 202.846 40.2668 202.428 40.0548C202.553 39.957 202.756 39.8785 202.452 39.7308C201.987 39.5056 201.625 39.1632 201.433 38.6527L201.432 38.6527Z" fill="black"/>
<path d="M210.359 32.5389C210.31 32.0467 210.596 31.6798 210.804 31.2885C211.802 29.4176 211.94 27.4794 211.125 25.5199C210.779 24.6873 210.024 24.2287 209.245 23.8639C209.169 23.8283 209.096 23.8079 209.066 23.7192C210.204 23.8323 210.959 24.511 211.476 25.5168C212.507 27.5243 211.959 30.9349 210.359 32.5379L210.359 32.5389Z" fill="black"/>
<path d="M181.423 43.0029C181.291 43.0049 181.159 43.0069 181.027 43.009C181.451 42.1235 182.208 41.6221 183.074 41.4794C184.166 41.3001 185.015 40.7182 185.889 40.1129C186.301 39.8276 186.688 39.4883 187.166 39.313C187.234 39.3232 187.304 39.3344 187.372 39.3446C187.367 39.3772 187.367 39.4108 187.372 39.4434C187.009 39.9173 186.391 40.0232 186.007 40.4675C185.516 40.8242 185.024 41.1809 184.533 41.5375C184.162 41.6455 183.795 41.7994 183.417 41.8514C182.598 41.9635 181.961 42.3813 181.424 43.0019L181.423 43.0029Z" fill="black"/>
<path d="M190.301 52.2794C191.052 52.633 191.709 53.1619 192.47 53.5053C193.662 54.0433 194.932 54.2706 196.174 54.615C196.297 54.6497 196.442 54.6181 196.466 54.8056C195.649 54.8137 194.87 54.5844 194.079 54.4112C193.095 54.1952 192.207 53.7264 191.295 53.3168C191.258 53.3107 191.222 53.3035 191.185 53.2974C191.083 53.2444 190.981 53.1914 190.879 53.1395C190.526 52.8847 190.172 52.6299 189.818 52.3752C189.815 52.3426 189.811 52.31 189.805 52.2774C189.881 52.1602 190.001 52.1795 190.112 52.1755L190.108 52.1714C190.127 52.2957 190.142 52.4261 190.3 52.2794L190.301 52.2794Z" fill="black"/>
<path d="M190.792 35.082C190.787 35.2349 190.94 35.2756 190.993 35.3888C190.488 36.2886 190.006 37.2057 189.261 37.9302C188.834 38.346 188.313 38.563 187.767 38.7342C187.555 38.7658 187.348 38.7556 187.161 38.6293C187.179 38.6058 187.186 38.5793 187.18 38.5487C188.453 38.3348 189.255 37.4737 189.92 36.4108C190.201 35.9614 190.412 35.4621 190.792 35.082Z" fill="black"/>
<path d="M189.818 52.3752C190.172 52.63 190.525 52.8857 190.879 53.1395C190.824 53.5104 191.129 53.5889 191.334 53.7509C191.395 53.7998 191.477 53.865 191.407 53.9506C191.339 54.0342 191.267 53.9404 191.2 53.9109C190.64 53.4492 190.035 53.06 189.422 52.6819C189.434 52.4129 189.608 52.3681 189.817 52.3752L189.818 52.3752Z" fill="#D4AA61"/>
<path d="M192.665 54.793C192.389 54.7217 192.098 54.6881 191.889 54.4323C192.217 54.3334 192.296 54.3681 192.665 54.793Z" fill="#D4AA61"/>
<path d="M206.348 49.4361C206.392 49.1477 206.476 48.8818 206.735 48.7197C206.664 48.9928 206.573 49.2537 206.348 49.4361Z" fill="black"/>
<path d="M208.867 23.6914C208.67 23.7913 208.477 23.8137 208.292 23.6609C208.489 23.5651 208.68 23.5895 208.867 23.6914Z" fill="black"/>
<path d="M205.646 50.4014C205.646 50.1446 205.776 49.9968 206.006 49.9326C205.949 50.1415 205.814 50.2852 205.646 50.4014Z" fill="black"/>
<path d="M181.608 22.8501C181.767 23.0203 181.693 23.218 181.671 23.4106C181.541 23.2373 181.534 23.0488 181.608 22.8501Z" fill="black"/>
<path d="M180.668 44.2505C180.756 44.4084 180.761 44.5654 180.664 44.7213C180.551 44.5633 180.551 44.4064 180.668 44.2505Z" fill="black"/>
<path d="M181.67 21.0615C181.692 21.25 181.765 21.4447 181.609 21.6108C181.538 21.4161 181.545 21.2317 181.67 21.0615Z" fill="black"/>
<path d="M186.481 15.7361C186.342 15.8482 186.214 15.8532 186.1 15.6984C186.235 15.6219 186.36 15.6586 186.481 15.7361Z" fill="black"/>
<path d="M190.502 31.4119C190.587 31.255 190.616 31.0512 190.822 30.9951C190.759 31.1704 190.679 31.3314 190.502 31.4119Z" fill="black"/>
<path d="M185.611 15.7066C185.528 15.833 185.434 15.8432 185.329 15.7352C185.418 15.6689 185.51 15.6414 185.611 15.7066Z" fill="black"/>
<path d="M185.124 15.7645C185.072 15.9387 184.975 15.952 184.844 15.8521C184.917 15.7523 185.013 15.7349 185.124 15.7645Z" fill="black"/>
<path d="M197.349 13.1293C197.289 13.2933 197.189 13.3045 197.062 13.2108C197.136 13.1028 197.234 13.0855 197.349 13.1293Z" fill="black"/>
<path d="M181.933 19.5991C182.042 19.7683 181.896 19.861 181.829 19.9782C181.809 19.8355 181.814 19.7 181.933 19.5991Z" fill="black"/>
<path d="M180.793 43.5952C180.832 43.7267 180.846 43.851 180.705 43.9325C180.636 43.7919 180.673 43.6818 180.793 43.5952Z" fill="black"/>
<path d="M180.708 45.1421C180.851 45.2256 180.83 45.352 180.791 45.4835C180.669 45.3948 180.639 45.2807 180.708 45.1421Z" fill="black"/>
<path d="M207.413 23.767C207.351 23.8659 207.265 23.8639 207.171 23.8333C207.239 23.7579 207.31 23.7028 207.413 23.767Z" fill="black"/>
<path d="M207.011 23.8712C206.965 23.9547 206.892 23.9639 206.811 23.9476C206.861 23.8753 206.907 23.7927 207.011 23.8712Z" fill="black"/>
<path d="M206.06 49.8672C206.038 49.7327 206.079 49.6451 206.221 49.6318C206.221 49.749 206.157 49.8214 206.06 49.8672Z" fill="black"/>
<path d="M182.069 19.1323C182.097 19.2352 182.092 19.327 181.985 19.381C181.934 19.2689 181.99 19.1965 182.069 19.1323Z" fill="black"/>
<path d="M182.356 18.3101C182.392 18.4323 182.38 18.5312 182.239 18.5658C182.227 18.4548 182.277 18.3763 182.356 18.3101Z" fill="black"/>
<path d="M207.991 23.6744C207.938 23.7631 207.879 23.7743 207.813 23.6897C207.868 23.6245 207.926 23.6112 207.991 23.6744Z" fill="black"/>
<path d="M186.966 15.8514C186.867 15.9513 186.817 15.8932 186.781 15.7872C186.864 15.7434 186.922 15.774 186.966 15.8514Z" fill="black"/>
<path d="M191.291 22.7427C191.173 22.6785 191.181 22.5797 191.223 22.4717C191.306 22.5461 191.357 22.6286 191.291 22.7427Z" fill="black"/>
<path d="M196.448 13.4484C196.414 13.4626 196.379 13.4769 196.345 13.4922C196.356 13.4158 196.395 13.4147 196.448 13.4484Z" fill="black"/>
<path d="M205.354 50.7314C205.359 50.6438 205.387 50.5745 205.485 50.5684C205.476 50.6529 205.443 50.7161 205.354 50.7314Z" fill="black"/>
<path d="M205.479 50.5745C205.483 50.5042 205.521 50.4675 205.587 50.4614C205.551 50.4991 205.515 50.5368 205.479 50.5745Z" fill="black"/>
<path d="M181.81 20.1279L181.804 20.1583L181.781 20.1431L181.81 20.1279Z" fill="black"/>
<path d="M187.181 38.5488C187.186 38.5794 187.181 38.6059 187.161 38.6293C187.141 38.611 187.123 38.5926 187.103 38.5743C187.129 38.5662 187.155 38.557 187.181 38.5488Z" fill="#D4AA61"/>
<path d="M187.637 16.1241C187.616 16.1241 187.597 16.115 187.582 16.0987L187.618 16.0864L187.637 16.1231L187.637 16.1241Z" fill="black"/>
<path d="M182.201 18.7114L182.196 18.7309L182.175 18.7233L182.201 18.7114Z" fill="black"/>
<path d="M191.185 53.2983C191.222 53.3045 191.258 53.3116 191.295 53.3177C191.248 53.3707 191.215 53.3442 191.185 53.2983Z" fill="#D4AA61"/>
<path d="M189.818 52.3751C189.608 52.3689 189.435 52.4128 189.423 52.6818C187.07 51.3489 184.674 50.0731 182.778 48.0432C181.905 47.1077 181.144 46.0663 180.958 44.7049C180.896 44.2453 180.948 43.8081 181.214 43.4178C181.212 43.7399 181.391 44.0099 181.434 44.3329C181.535 45.087 181.542 45.8971 182.107 46.5045C182.163 46.5636 182.201 46.6532 182.299 46.6217C182.4 46.589 182.388 46.4882 182.384 46.4087C182.378 46.2915 182.352 46.1763 182.338 46.0592C182.269 45.4528 182.265 44.8659 182.456 44.2626C182.769 43.2793 183.441 42.7616 184.332 42.4426C184.752 42.2918 185.196 42.1757 185.555 41.8516C185.317 41.7884 185.094 41.7854 184.871 41.7884C184.697 41.7905 184.537 41.7782 184.532 41.5367C185.023 41.1801 185.515 40.8234 186.006 40.4668C186.47 40.694 186.792 40.2721 187.148 40.1335C188.105 39.7606 189.044 39.3428 190.053 39.1359C190.147 39.1165 190.271 39.1278 190.272 38.9922C190.274 38.818 190.129 38.8434 190.02 38.8343C189.433 38.7864 188.88 39.0055 188.222 39.1186C188.499 38.766 188.838 38.7171 189.117 38.5958C190.282 38.0873 191.206 37.2905 192.033 36.2989C192.612 35.604 193.225 34.9243 193.981 34.3944C195.087 33.621 196.252 33.4589 197.512 33.782C197.674 33.8237 197.829 33.8411 197.994 33.8258C198.958 34.3557 199.636 35.1678 200.117 36.1716C200.1 36.1716 200.083 36.1767 200.068 36.1716C199.412 35.9892 199.409 35.9892 199.491 36.6872C199.537 37.0805 199.427 37.4097 199.014 37.3873C198.454 37.3567 198.488 37.641 198.603 38.0292C198.104 37.8193 197.655 37.4718 197.037 37.5126C197.988 38.2901 198.939 39.0666 199.89 39.8441C199.672 39.999 199.315 39.9949 199.244 40.3108C199.134 40.8102 198.868 41.1994 198.622 41.6295C198.082 42.569 197.656 43.5778 196.896 44.3686C196.691 44.5806 196.427 44.8149 196.371 45.0809C196.195 45.9073 195.436 46.1906 194.975 46.7246C194.422 47.3676 193.685 47.9128 192.794 48.1553C192.099 48.3438 191.968 48.7178 192.282 49.4199C191.859 49.0928 191.464 49.1733 191.108 49.0663C190.738 48.9552 190.674 49.1244 190.695 49.4382C190.571 49.5004 190.354 49.1366 190.303 49.532C190.268 49.6064 190.234 49.6808 190.2 49.7562C190.044 49.6665 189.887 49.5758 189.731 49.4861C189.5 49.1641 189.27 48.8411 189.039 48.5181L188.932 48.6047C189.075 48.995 189.289 49.3323 189.67 49.5432C189.939 49.9111 190.189 50.3054 190.695 50.3441C190.776 50.8058 191.284 50.8139 191.482 51.1512C191.407 51.2603 191.285 51.2297 191.185 51.2623C190.861 51.3672 190.495 51.2643 190.195 51.4814C189.74 51.3285 189.415 50.9627 189.028 50.6998C188.891 50.6071 188.741 50.4522 188.613 50.6162C188.519 50.7355 188.664 50.8944 188.76 51.0035C188.955 51.2256 189.162 51.4365 189.364 51.6516C189.11 51.6893 189.111 51.8238 189.282 51.9603C189.441 52.0877 189.631 52.1723 189.807 52.2762C189.813 52.3088 189.817 52.3414 189.82 52.374L189.818 52.3751ZM189.87 49.0164C189.922 49.0622 189.975 49.1193 190.015 49.0041C189.952 48.7636 189.773 48.7015 189.549 48.6414C189.581 48.8839 189.696 48.9797 189.87 49.0164ZM184.183 46.2976C184 47.8312 185.936 49.2803 187.945 49.2884C186.344 48.7881 184.713 48.3295 184.183 46.2976ZM195.669 36.8054L195.636 36.945C196.023 37.103 196.411 37.2599 196.799 37.4178L196.85 37.2711C196.519 36.944 196.088 36.892 195.67 36.8044L195.669 36.8054ZM188.942 48.2429C188.898 48.2062 188.864 48.1797 188.831 48.1522C188.808 48.1899 188.765 48.2297 188.767 48.2643C188.77 48.299 188.821 48.3295 188.851 48.3611C188.877 48.3265 188.904 48.2918 188.942 48.2429ZM195.402 36.7606C195.382 36.7412 195.366 36.7208 195.347 36.7096C195.335 36.7035 195.314 36.7066 195.301 36.7137C195.261 36.7341 195.263 36.7626 195.308 36.7738C195.335 36.7809 195.366 36.7667 195.402 36.7606Z" fill="black"/>
<path d="M190.694 49.4393C190.674 49.1255 190.737 48.9563 191.108 49.0674C191.464 49.1744 191.858 49.0929 192.281 49.421C191.968 48.7189 192.098 48.3459 192.794 48.1564C193.684 47.9149 194.42 47.3687 194.974 46.7257C195.434 46.1917 196.195 45.9094 196.371 45.082C196.427 44.816 196.691 44.5816 196.895 44.3697C197.656 43.5789 198.082 42.5711 198.621 41.6305C198.867 41.2005 199.132 40.8112 199.244 40.3119C199.314 39.996 199.671 40.0001 199.889 39.8452C200.9 40.4362 201.971 40.7338 203.142 40.6665C203.851 40.6258 204.581 40.586 205.239 40.958C206.162 41.4797 206.631 42.3418 206.81 43.3822C207.025 44.6214 207.005 45.8615 206.719 47.0915C206.683 47.2423 206.637 47.3829 206.539 47.5001C206.444 47.492 206.349 47.4838 206.254 47.4757C206.251 46.7246 206.259 45.9716 205.88 45.2613C205.704 45.3887 205.775 45.5181 205.788 45.6424C205.913 46.8449 205.971 48.0371 205.306 49.1214C205.21 49.2783 205.121 49.4393 204.971 49.5494C204.894 49.3598 204.653 49.4862 204.563 49.3201C204.66 48.8452 204.86 48.4091 204.908 47.9057C205.029 46.6615 204.691 45.5507 204.178 44.4675C204.168 44.4471 204.118 44.4471 204.087 44.438C204.063 44.225 203.968 44.0925 203.692 44.0548C203.802 44.3218 203.821 44.5623 204.074 44.6479C204.143 45.3153 204.382 45.9441 204.398 46.6309C204.444 48.6058 203.568 50.0833 202.187 51.3123C201.476 51.9451 200.657 52.4169 199.789 52.7318C198.955 53.0334 198.053 52.9142 197.181 52.8327C195.444 52.6706 193.949 51.7698 192.388 51.0728C191.826 50.8221 191.324 50.4206 190.694 50.3432L190.695 50.3442C190.711 49.9835 190.252 50.0548 190.2 49.7562C190.234 49.6819 190.269 49.6075 190.303 49.5321C191.136 50.0212 191.943 50.5541 192.861 50.8802C193.767 51.2022 194.688 51.2369 195.594 51.0351C196.134 50.9149 196.63 50.5786 197.146 50.3391C197.568 50.2056 197.98 50.0569 198.222 49.6278C198.232 49.6227 198.245 49.6197 198.255 49.6126C198.261 49.6085 198.26 49.5963 198.263 49.5881C198.25 49.6024 198.236 49.6166 198.224 49.6309C197.798 49.688 197.467 49.9366 197.145 50.2046C196.971 50.2382 196.794 50.2637 196.622 50.3085C194.534 50.8466 192.558 50.5623 190.695 49.4403L190.694 49.4393ZM201.64 50.5429C201.447 50.5521 201.342 50.6927 201.241 50.8384C200.944 50.8924 200.659 50.973 200.455 51.2318C199.538 51.4529 198.618 51.6384 197.666 51.5711C197.066 51.5283 196.483 51.403 195.897 51.2736C195.752 51.241 195.515 51.1635 195.453 51.3337C195.373 51.5538 195.62 51.6149 195.767 51.7046C195.796 51.7219 195.825 51.7362 195.855 51.7484C197.489 52.4363 199.052 52.1866 200.573 51.3632C200.785 51.1696 201.182 51.2573 201.265 50.867C201.465 50.8558 201.634 50.8028 201.645 50.548C201.658 50.5327 201.672 50.5174 201.684 50.5022L201.639 50.5419L201.64 50.5429ZM193.823 49.6329C193.411 49.4108 192.977 49.5891 192.55 49.5779C192.966 49.744 193.393 49.8255 193.838 49.8123C195.228 49.8826 196.556 49.6146 197.821 49.0103C198.26 48.8697 198.594 48.5579 198.951 48.2807C198.467 48.3367 198.084 48.5905 197.727 48.9003C196.447 49.2691 195.16 49.5942 193.823 49.634L193.823 49.6329Z" fill="black"/>
<path d="M198.603 38.0315C198.488 37.6432 198.454 37.3589 199.014 37.3895C199.427 37.4119 199.537 37.0828 199.491 36.6894C199.409 35.9914 199.413 35.9904 200.068 36.1738C200.083 36.1779 200.1 36.1738 200.117 36.1738C200.506 36.5355 200.629 37.0573 200.856 37.5148C201.046 37.8959 201.166 38.3137 201.432 38.6531C201.624 39.1636 201.986 39.507 202.451 39.7312C202.755 39.8779 202.552 39.9574 202.427 40.0552C201.591 40.0033 200.86 39.6527 200.183 39.1738C199.703 38.8345 199.235 38.4778 198.713 38.2108C198.707 38.1293 198.686 38.0569 198.605 38.0223L198.603 38.0325L198.603 38.0315Z" fill="black"/>
<path d="M190.195 51.4835C190.495 51.2664 190.86 51.3694 191.185 51.2644C191.287 51.2318 191.407 51.2613 191.482 51.1533C192.003 51.1676 192.275 51.6791 192.73 51.833C192.876 51.8819 193.003 51.993 193.139 52.0766C192.986 52.4872 192.63 52.42 192.332 52.4098C192.109 52.4026 191.886 52.3812 191.661 52.3996C191.057 52.2956 190.586 51.9583 190.194 51.4855L190.195 51.4835Z" fill="black"/>
<path d="M204.564 49.3208C204.653 49.4869 204.895 49.3606 204.972 49.5501C204.481 50.507 203.771 51.2223 202.817 51.6656C203.226 51.1225 203.637 50.5804 204.045 50.0352C204.221 49.7998 204.391 49.5583 204.564 49.3198L204.564 49.3208Z" fill="black"/>
<path d="M206.255 47.4766C206.35 47.4847 206.445 47.4929 206.539 47.501C206.484 47.8597 206.357 48.1838 206.063 48.5893C206.121 48.1196 206.275 47.8118 206.255 47.4766Z" fill="black"/>
<path d="M204.074 44.6487C203.821 44.5631 203.802 44.3216 203.692 44.0557C203.968 44.0934 204.063 44.2258 204.087 44.4388C204.082 44.5091 204.078 44.5784 204.073 44.6487L204.074 44.6487Z" fill="black"/>
<path d="M198.605 38.021C198.687 38.0556 198.707 38.128 198.713 38.2095C198.612 38.1871 198.598 38.1107 198.605 38.021Z" fill="#8D530A"/>
<path d="M202.817 51.667C202.81 51.6813 202.802 51.6955 202.795 51.7098C202.803 51.6955 202.81 51.6813 202.818 51.667L202.817 51.667Z" fill="black"/>
<path d="M180.631 27.5162C181.486 28.0237 181.965 28.8735 182.459 29.7061C182.945 30.5264 183.322 31.4496 183.301 32.38C183.27 33.7638 183.547 35.2353 182.652 36.4948C181.911 37.5383 180.3 38.1416 179.087 37.8532C177.725 37.5291 176.868 36.6059 176.246 35.3871C175.697 34.311 175.407 33.1412 175.378 31.9326C175.365 31.3538 175.392 30.7485 175.553 30.1728C175.646 30.1728 175.739 30.1738 175.832 30.1748C175.834 30.3277 175.838 30.4795 175.837 30.6324C175.835 31.7747 176.091 32.8416 176.699 33.8036C177.006 34.2907 177.46 34.6677 177.995 34.525C179.209 34.201 180.248 33.5111 180.844 32.327C181.308 31.4038 181.265 30.3684 181.165 29.3453C181.102 28.6932 180.732 28.149 180.631 27.5142L180.631 27.5162Z" fill="black"/>
<path d="M180.632 27.516C180.732 28.1498 181.103 28.694 181.167 29.3472C181.266 30.3703 181.309 31.4056 180.845 32.3288C180.249 33.5129 179.21 34.2028 177.996 34.5268C177.461 34.6695 177.008 34.2925 176.701 33.8054C176.093 32.8424 175.837 31.7765 175.838 30.6342C175.838 30.4813 175.835 30.3295 175.833 30.1766C175.982 30.0452 175.92 29.8648 175.931 29.7038C175.994 28.749 176.462 28.0245 177.188 27.5058C177.512 27.2734 177.835 27.0574 178.097 26.7507C178.449 26.6987 178.8 26.6916 179.152 26.7507C179.189 26.8597 179.229 26.9637 179.353 26.8261C179.421 26.8526 179.49 26.8801 179.558 26.9066C179.599 26.9351 179.64 26.9626 179.682 26.9912C180.059 27.0503 180.331 27.3111 180.633 27.518L180.632 27.516Z" fill="black"/>
<path d="M183.763 32.5122C184.318 33.6882 184.413 34.911 184.333 36.1512C184.272 37.0917 183.48 38.0201 182.593 38.2116C182.003 38.339 181.409 38.5367 180.623 38.335C183.618 37.429 184.239 35.2799 183.764 32.5112L183.763 32.5122Z" fill="black"/>
<path d="M178.097 26.7495C177.835 27.0562 177.512 27.2733 177.188 27.5046C176.462 28.0223 175.994 28.7478 175.931 29.7026C175.92 29.8636 175.982 30.044 175.833 30.1755C175.74 30.1755 175.647 30.1745 175.553 30.1734C175.724 29.238 175.972 28.3321 176.623 27.6249C177.025 27.1887 177.468 26.7903 178.096 26.7495L178.097 26.7495Z" fill="#8D530A"/>
<path d="M179.352 26.824C179.228 26.9616 179.189 26.8577 179.151 26.7486C179.236 26.7211 179.307 26.7344 179.352 26.824Z" fill="#8D530A"/>
<path d="M179.681 26.9894C179.64 26.9608 179.599 26.9333 179.557 26.9048C179.598 26.9333 179.639 26.9608 179.681 26.9894Z" fill="#8D530A"/>
<path d="M207.895 24.0871C208.754 24.0178 209.525 24.2196 210.149 24.8779C210.423 25.8653 210.282 26.8416 210.067 27.8127C209.725 29.3575 209.086 30.7709 208.241 32.0814C207.737 32.865 207.195 33.614 206.454 34.1969C206.053 34.5128 205.532 34.5199 205.163 34.8664C204.591 35.0885 204.142 34.7614 203.755 34.4312C203.291 34.0359 202.963 33.507 202.908 32.8477C202.91 32.595 202.942 32.3382 202.908 32.0916C202.791 31.2509 202.92 30.4418 203.097 29.6225C203.232 28.9968 203.519 28.4363 203.695 27.8321C203.695 27.7617 203.693 27.6914 203.692 27.6211L203.689 27.6272C203.815 27.5753 203.888 27.4652 203.968 27.3592C204.471 26.6969 204.943 26.0121 205.583 25.4679C205.853 25.2386 206.269 25.1194 206.331 24.668L206.328 24.6721C206.472 24.6914 206.6 24.6435 206.722 24.5702C207.015 24.5121 207.272 24.3256 207.591 24.347C207.717 24.3551 207.873 24.2757 207.893 24.0871L207.895 24.0871Z" fill="black"/>
<path d="M205.163 34.8674C205.531 34.5209 206.052 34.5138 206.453 34.1979C207.195 33.614 207.735 32.865 208.241 32.0824C209.086 30.7719 209.724 29.3596 210.067 27.8137C210.282 26.8426 210.423 25.8663 210.149 24.8789C210.92 25.4516 211.12 26.3188 211.213 27.2165C211.383 28.8694 210.965 30.3827 210.029 31.7084C208.956 33.2308 207.556 34.3334 205.812 34.9153C205.603 34.9846 205.368 35.0406 205.164 34.8664L205.163 34.8674Z" fill="black"/>
<path d="M203.696 27.8331C203.52 28.4374 203.233 28.9978 203.098 29.6235C202.921 30.4428 202.792 31.2509 202.909 32.0926C202.943 32.3392 202.911 32.596 202.909 32.8487C202.438 31.5902 202.618 30.3429 202.984 29.1058C203.136 28.5943 203.272 28.0695 203.597 27.6323C203.63 27.6996 203.664 27.7658 203.697 27.8331L203.696 27.8331Z" fill="#8D530A"/>
<path d="M204.774 35.4715C205.572 35.5438 206.299 35.2758 207.02 34.9691C207.129 34.9222 207.273 34.7796 207.354 34.9467C207.424 35.0883 207.256 35.175 207.153 35.2463C206.398 35.766 205.573 35.9912 204.67 35.874C204.705 35.7395 204.739 35.605 204.775 35.4705L204.774 35.4715Z" fill="black"/>
<path d="M204.773 35.4715C204.738 35.606 204.704 35.7406 204.669 35.8751C203.434 35.6753 202.896 34.7776 202.605 33.6353C202.644 33.6353 202.683 33.6363 202.721 33.6373C203.092 34.6288 203.826 35.1801 204.773 35.4726L204.773 35.4715Z" fill="black"/>
<path d="M206.333 24.669C206.271 25.1204 205.855 25.2397 205.585 25.4689C204.945 26.0131 204.473 26.6979 203.97 27.3603C203.889 27.4662 203.817 27.5763 203.691 27.6283C203.641 27.3837 203.783 27.1952 203.897 27.025C204.448 26.2067 205.069 25.4516 205.849 24.8555C205.992 24.7465 206.136 24.6252 206.334 24.668L206.333 24.669Z" fill="#D4AA61"/>
<path d="M202.721 33.636C202.683 33.636 202.645 33.635 202.605 33.634C202.299 33.1184 202.462 32.5589 202.479 32.0117C202.457 32.5712 202.629 33.097 202.721 33.636Z" fill="black"/>
<path d="M207.895 24.0871C207.875 24.2756 207.719 24.3551 207.593 24.347C207.274 24.3266 207.017 24.5131 206.724 24.5701C206.724 24.5182 206.723 24.4662 206.722 24.4142C207.106 24.2756 207.471 24.0678 207.895 24.0861L207.895 24.0871Z" fill="#8D530A"/>
<path d="M206.722 24.416C206.722 24.468 206.723 24.52 206.724 24.5719C206.602 24.6453 206.474 24.6922 206.33 24.6738C206.387 24.4659 206.581 24.4833 206.722 24.417L206.722 24.416Z" fill="#D4AA61"/>
<path d="M203.696 27.833C203.663 27.7658 203.629 27.6995 203.596 27.6323C203.628 27.6292 203.661 27.6251 203.693 27.6221C203.693 27.6924 203.695 27.7627 203.696 27.833Z" fill="#D4AA61"/>
<path d="M188.538 30.0697C187.676 30.5599 186.737 30.4998 185.805 30.4835C185.672 30.3602 185.54 30.2369 185.407 30.1136C185.437 29.8904 185.268 29.7875 185.154 29.6479C184.884 29.3157 184.619 28.9794 184.315 28.5972C184.447 28.5972 184.489 28.583 184.507 28.5993C185.246 29.28 186.037 28.8816 186.815 28.7155C186.936 28.69 187.001 28.5595 187.018 28.4474C187.105 27.8676 187.232 27.2858 187.238 26.7039C187.245 26.069 187.187 25.4199 187.062 24.7993C186.942 24.2053 187.122 23.3768 186.2 23.2504C186.232 23.013 186.263 22.7745 186.295 22.5371C186.737 22.5911 186.851 22.3364 186.766 21.9512C186.718 21.7351 186.683 21.5222 186.679 21.3021C186.704 20.9322 186.938 20.657 187.08 20.3401C187.49 19.426 187.533 18.3245 186.642 17.6641C186.173 17.3177 185.609 17.2229 185.046 17.1312C184.363 17.0201 183.797 17.4002 183.177 17.549C183.884 16.1193 185.703 15.6434 187.165 16.3078C188.311 16.8285 189.004 17.7681 189.581 18.8982C190.052 19.8214 190.384 20.7722 190.628 21.7708C190.672 21.9491 190.687 22.1356 190.714 22.319C190.697 22.4087 190.711 22.4851 190.791 22.5371C190.818 22.8764 190.845 23.2158 190.872 23.5551C190.783 23.6509 190.793 23.7722 190.795 23.8894C190.819 25.4046 190.443 26.8201 189.801 28.1652C189.736 28.3027 189.761 28.5229 189.538 28.5494C188.88 28.8123 188.736 29.0752 189.036 29.4695C189.052 29.7131 188.757 29.7416 188.727 29.9536C188.664 29.9923 188.601 30.03 188.538 30.0687L188.538 30.0697Z" fill="black"/>
<path d="M186.297 22.5372C186.264 22.7747 186.233 23.0131 186.201 23.2506C185.954 23.9547 185.627 24.6038 185.063 25.096C184.411 25.6656 183.429 25.7614 182.853 24.9258C182.491 24.399 182.354 23.7998 182.189 23.2006C182.126 22.9683 182.177 22.6881 181.943 22.523C181.919 21.775 181.992 21.0342 182.084 20.2934C182.165 20.2444 182.184 20.1721 182.153 20.0834C182.206 19.8256 182.26 19.5668 182.313 19.309C182.513 19.1836 182.535 18.9747 182.545 18.7618C182.717 18.3358 182.901 17.917 183.178 17.5501C183.798 17.4014 184.364 17.0213 185.047 17.1323C185.61 17.2241 186.173 17.3188 186.643 17.6653C187.534 18.3246 187.491 19.4262 187.081 20.3413C186.938 20.6582 186.705 20.9333 186.68 21.3032C186.225 21.6048 186.302 22.0848 186.297 22.5372L186.297 22.5372Z" fill="black"/>
<path d="M181.942 22.522C182.176 22.6881 182.125 22.9673 182.188 23.1996C182.353 23.7988 182.49 24.398 182.852 24.9248C183.429 25.7604 184.41 25.6646 185.062 25.095C185.627 24.6028 185.953 23.9537 186.2 23.2496C187.123 23.3759 186.942 24.2044 187.062 24.7985C187.188 25.4201 187.246 26.0682 187.238 26.703C187.231 27.2849 187.105 27.8668 187.018 28.4466C187.001 28.5587 186.935 28.6891 186.815 28.7146C186.037 28.8807 185.246 29.2791 184.507 28.5984C184.489 28.5821 184.447 28.5964 184.315 28.5964C184.619 28.9775 184.884 29.3148 185.154 29.647C185.268 29.7866 185.436 29.8895 185.407 30.1127C184.602 29.6144 184.065 28.8511 183.595 28.0441C182.61 26.3494 181.967 24.5335 181.941 22.522L181.942 22.522Z" fill="black"/>
<path d="M189.538 28.5504C189.76 28.5239 189.736 28.3038 189.801 28.1662C190.443 26.8201 190.819 25.4057 190.795 23.8904C190.793 23.7732 190.783 23.6519 190.872 23.5562C191.106 24.0871 191.014 24.6567 190.958 25.1886C190.814 26.5684 190.46 27.8982 189.738 29.0874C189.497 29.4838 189.229 29.8761 188.727 29.9556C188.756 29.7437 189.051 29.7151 189.036 29.4716C189.341 29.2464 189.477 28.9213 189.537 28.5514L189.538 28.5504Z" fill="black"/>
<path d="M182.544 18.7617C182.533 18.9747 182.512 19.1836 182.312 19.3089C182.321 19.096 182.321 18.8769 182.544 18.7617Z" fill="black"/>
<path d="M182.152 20.083C182.181 20.1717 182.164 20.244 182.083 20.2929C181.955 20.1686 182.042 20.1217 182.152 20.083Z" fill="black"/>
<path d="M190.792 22.5369C190.712 22.4849 190.698 22.4085 190.716 22.3188C190.825 22.3596 190.94 22.3983 190.792 22.5369Z" fill="black"/>
<path d="M195.097 27.7493C194.933 27.5822 194.705 27.5975 194.507 27.5302C193.245 26.7721 192.948 25.4545 192.763 24.1196C192.53 22.4321 192.576 20.7405 193.035 19.0856C193.578 17.1311 194.374 15.3356 196.01 14.0863C196.207 13.9354 196.418 13.8081 196.664 13.7622C196.646 13.8254 196.634 13.8916 196.609 13.9517C196.558 14.0801 196.301 14.1066 196.405 14.2952C196.512 14.4888 196.69 14.3318 196.839 14.3217C196.874 14.3186 196.914 14.3716 196.951 14.3981C196.547 14.7578 196.03 14.9647 195.669 15.3814C194.682 16.5258 194.037 17.8597 193.755 19.3658C193.638 19.9884 193.534 20.6569 193.855 21.2469C194.361 22.1793 194.812 22.4616 195.646 22.001C196.386 21.5924 196.876 20.9107 197.438 20.3033C197.682 20.0404 197.801 19.6695 198.116 19.4708C198.08 20.4378 198.538 21.2857 198.718 22.2018C198.738 22.3088 198.804 22.4005 198.904 22.4127C199.261 22.4545 199.216 22.6634 199.126 22.9171C199.08 23.0465 199.081 23.1973 199.211 23.2819C199.368 23.3848 199.494 23.2626 199.598 23.1668C199.724 23.0496 199.766 22.8264 199.995 22.8427C199.99 23.02 199.979 23.1953 199.882 23.3502C199.756 23.3726 199.637 23.3981 199.79 23.556C199.572 24.0401 199.429 24.5577 199.136 25.0092C198.194 26.4572 197.015 27.5333 195.276 27.7656C195.217 27.7595 195.157 27.7544 195.096 27.7483L195.097 27.7493Z" fill="#202020"/>
<path d="M195.276 27.7659C197.015 27.5346 198.194 26.4575 199.136 25.0094C199.429 24.559 199.572 24.0403 199.79 23.5563C199.868 23.5104 199.883 23.434 199.882 23.3505C199.979 23.1956 199.989 23.0193 199.994 22.843C200.21 22.7197 200.222 22.4792 200.264 22.2744C200.459 21.3206 200.608 20.3637 200.695 19.3865C200.817 18.0189 200.715 16.7085 200.342 15.396C200.249 15.0719 199.952 14.8487 199.989 14.4829C200.325 14.5991 200.477 14.9241 200.646 15.1911C201.498 16.5301 201.857 18.0413 202.039 19.6188C202.16 20.6663 202.165 21.7149 202.119 22.7594C202.062 24.0454 201.865 25.3131 201.147 26.4187C200.444 27.4999 199.413 27.9646 198.214 28.0237C197.342 28.0675 196.462 28.0981 195.591 27.9361C195.462 27.9116 195.326 27.933 195.275 27.7649L195.276 27.7659Z" fill="black"/>
<path d="M199.99 14.4838C199.953 14.8486 200.25 15.0728 200.343 15.3968C200.717 16.7093 200.818 18.0198 200.696 19.3873C200.609 20.3645 200.46 21.3214 200.264 22.2752C200.222 22.48 200.21 22.7205 199.995 22.8438C199.767 22.8265 199.725 23.0497 199.599 23.1679C199.495 23.2637 199.37 23.3859 199.212 23.283C199.083 23.1984 199.081 23.0476 199.127 22.9182C199.218 22.6645 199.262 22.4546 198.905 22.4138C198.804 22.4026 198.739 22.3099 198.718 22.2029C198.538 21.2878 198.081 20.4389 198.117 19.4729C198.317 19.0306 198.514 18.5853 198.72 18.1461C199.089 17.3625 199.31 16.5422 199.302 15.6628C199.294 14.7844 198.815 14.3024 197.962 14.28C197.616 14.2708 197.285 14.3309 196.951 14.3992C196.914 14.3717 196.874 14.3197 196.839 14.3228C196.69 14.334 196.512 14.4909 196.405 14.2963C196.301 14.1077 196.558 14.0812 196.609 13.9528C196.634 13.8917 196.645 13.8265 196.664 13.7633C196.684 13.7592 196.704 13.7623 196.723 13.7715C196.9 13.745 197.117 13.8815 197.24 13.6349C197.546 13.3455 197.929 13.4423 198.25 13.5075C198.914 13.64 199.546 13.8999 199.989 14.4868L199.99 14.4838Z" fill="black"/>
<path d="M197.24 13.6318C197.117 13.8784 196.901 13.7429 196.723 13.7684C196.865 13.6033 197.068 13.6807 197.24 13.6318Z" fill="#8D530A"/>
<path d="M187.371 39.4446C187.367 39.412 187.367 39.3784 187.371 39.3458C187.436 39.2561 187.55 39.1888 187.588 39.3111C187.619 39.411 187.469 39.4375 187.37 39.4446L187.371 39.4446Z" fill="black"/>
<path d="M202.031 53.6999L202.077 53.6602C202.065 53.6754 202.052 53.6907 202.038 53.707L202.031 53.6999Z" fill="black"/>
<path d="M184.533 41.5386C184.538 41.7801 184.698 41.7923 184.872 41.7903C185.095 41.7872 185.318 41.7903 185.556 41.8535C185.197 42.1765 184.752 42.2937 184.333 42.4445C183.442 42.7634 182.771 43.2801 182.457 44.2645C182.266 44.8677 182.27 45.4547 182.339 46.061C182.352 46.1782 182.378 46.2933 182.385 46.4105C182.389 46.49 182.401 46.5909 182.3 46.6235C182.202 46.6551 182.164 46.5654 182.108 46.5063C181.544 45.899 181.536 45.0899 181.435 44.3348C181.392 44.0117 181.213 43.7417 181.215 43.4197C181.223 43.3871 181.228 43.3545 181.232 43.3208C181.258 43.2852 181.285 43.2485 181.31 43.2128C181.347 43.1435 181.385 43.0742 181.423 43.005C181.961 42.3844 182.597 41.9666 183.417 41.8545C183.796 41.8025 184.162 41.6486 184.533 41.5406L184.533 41.5386Z" fill="black"/>
<path d="M181.31 43.2109C181.284 43.2466 181.257 43.2833 181.232 43.319C181.258 43.2833 181.285 43.2466 181.31 43.2109Z" fill="#8D530A"/>
<path d="M189.806 52.277C189.63 52.1731 189.439 52.0885 189.281 51.9611C189.11 51.8246 189.109 51.69 189.363 51.6523C189.645 51.7767 189.93 51.8959 190.113 52.1751C190.002 52.1792 189.883 52.1598 189.806 52.277Z" fill="black"/>
<path d="M190.301 52.2794C190.142 52.4261 190.128 52.2957 190.109 52.1714C190.173 52.2071 190.237 52.2437 190.301 52.2794Z" fill="black"/>
<path d="M190.694 49.4391C192.557 50.5611 194.533 50.8464 196.621 50.3073C196.793 50.2635 196.969 50.2381 197.144 50.2044C197.144 50.2503 197.144 50.2951 197.145 50.34C196.63 50.5794 196.134 50.9157 195.593 51.036C194.687 51.2377 193.766 51.2031 192.86 50.8811C191.942 50.555 191.135 50.022 190.302 49.5329C190.353 49.1385 190.57 49.5013 190.694 49.4391Z" fill="black"/>
<path d="M184.183 46.2988C184.713 48.3318 186.344 48.7903 187.945 49.2897C185.936 49.2815 184 47.8325 184.183 46.2988Z" fill="black"/>
<path d="M195.669 36.8052C196.088 36.8918 196.518 36.9438 196.849 37.2719L196.798 37.4186C196.411 37.2607 196.023 37.1038 195.635 36.9458L195.669 36.8062L195.669 36.8052Z" fill="black"/>
<path d="M190.2 49.7573C190.252 50.0569 190.711 49.9846 190.695 50.3453C190.189 50.3056 189.939 49.9122 189.67 49.5444C189.699 49.5342 189.719 49.5158 189.731 49.4873L190.2 49.7573Z" fill="black"/>
<path d="M189.67 49.5442C189.289 49.3332 189.075 48.997 188.932 48.6057L189.039 48.519C189.27 48.8421 189.5 49.1641 189.731 49.4871C189.718 49.5146 189.699 49.534 189.67 49.5442Z" fill="black"/>
<path d="M189.871 49.0166C189.697 48.9799 189.582 48.8841 189.55 48.6416C189.775 48.7017 189.953 48.7639 190.016 49.0044C189.967 49.0084 189.918 49.0125 189.871 49.0156L189.871 49.0166Z" fill="black"/>
<path d="M188.943 48.244C188.904 48.2929 188.878 48.3276 188.851 48.3622C188.821 48.3296 188.77 48.3001 188.767 48.2654C188.765 48.2308 188.808 48.191 188.831 48.1533C188.864 48.1808 188.898 48.2073 188.943 48.244Z" fill="black"/>
<path d="M195.403 36.7617C195.367 36.7679 195.335 36.7811 195.309 36.775C195.264 36.7638 195.261 36.7353 195.301 36.7149C195.314 36.7077 195.335 36.7047 195.347 36.7108C195.366 36.722 195.382 36.7414 195.403 36.7617Z" fill="black"/>
<path d="M189.871 49.0166C189.919 49.0125 189.967 49.0084 190.016 49.0054C189.976 49.1205 189.922 49.0624 189.871 49.0166Z" fill="black"/>
<path d="M200.574 51.3643C199.054 52.1877 197.49 52.4373 195.856 51.7495C195.826 51.7373 195.797 51.723 195.768 51.7057C195.621 51.616 195.374 51.5549 195.454 51.3348C195.516 51.1646 195.752 51.242 195.898 51.2746C196.484 51.4041 197.067 51.5304 197.667 51.5722C198.619 51.6394 199.539 51.453 200.456 51.2329C200.495 51.2767 200.534 51.3205 200.574 51.3643Z" fill="black"/>
<path d="M197.821 49.0095C196.555 49.6148 195.228 49.8818 193.838 49.8114C193.833 49.7523 193.829 49.6922 193.824 49.6321C195.161 49.5924 196.448 49.2673 197.728 48.8994C197.759 48.9361 197.79 48.9728 197.821 49.0095Z" fill="black"/>
<path d="M197.821 49.0094C197.789 48.9727 197.758 48.936 197.728 48.8994C198.085 48.5896 198.468 48.3358 198.952 48.2798C198.594 48.5559 198.261 48.8678 197.822 49.0094L197.821 49.0094Z" fill="black"/>
<path d="M193.823 49.6327C193.828 49.6928 193.832 49.752 193.837 49.8121C193.393 49.8253 192.965 49.7438 192.55 49.5777C192.977 49.5889 193.411 49.4116 193.823 49.6327Z" fill="black"/>
<path d="M197.145 50.3402C197.145 50.2953 197.145 50.2505 197.144 50.2047C197.467 49.9367 197.797 49.687 198.223 49.6309L198.221 49.6289C197.978 50.0579 197.566 50.2067 197.145 50.3402Z" fill="black"/>
<path d="M200.573 51.3642C200.534 51.3203 200.495 51.2765 200.456 51.2327C200.658 50.9728 200.944 50.8923 201.242 50.8394L201.267 50.8689C201.184 51.2582 200.787 51.1716 200.573 51.3642Z" fill="black"/>
<path d="M201.242 50.8395C201.342 50.6927 201.447 50.5531 201.641 50.5439L201.647 50.5501C201.635 50.8048 201.466 50.8578 201.267 50.869L201.242 50.8395Z" fill="black"/>
<path d="M201.641 50.5427L201.686 50.5029C201.674 50.5182 201.66 50.5335 201.647 50.5488L201.641 50.5427Z" fill="black"/>
<path d="M198.223 49.6307C198.235 49.6164 198.249 49.6022 198.262 49.5879C198.26 49.596 198.26 49.6083 198.254 49.6123C198.245 49.6205 198.232 49.6225 198.221 49.6276L198.223 49.6297L198.223 49.6307Z" fill="black"/>
<path d="M186.297 22.5373C186.301 22.0848 186.225 21.6049 186.679 21.3032C186.684 21.5233 186.718 21.7353 186.766 21.9523C186.852 22.3375 186.738 22.5913 186.296 22.5383L186.297 22.5373Z" fill="#8D530A"/>
<path d="M189.538 28.5503C189.477 28.9202 189.341 29.2453 189.036 29.4705C188.736 29.0761 188.88 28.8132 189.538 28.5503Z" fill="#8D530A"/>
<path d="M196.952 14.398C197.286 14.3297 197.617 14.2696 197.962 14.2788C198.816 14.3012 199.295 14.7832 199.303 15.6616C199.311 16.54 199.09 17.3603 198.721 18.1449C198.515 18.5841 198.318 19.0294 198.118 19.4717C197.803 19.6704 197.684 20.0413 197.44 20.3042C196.879 20.9106 196.388 21.5933 195.648 22.0019C194.814 22.4625 194.363 22.1803 193.856 21.2479C193.536 20.6568 193.64 19.9894 193.757 19.3667C194.039 17.8606 194.685 16.5267 195.671 15.3824C196.031 14.9656 196.547 14.7577 196.953 14.399L196.952 14.398Z" fill="black"/>
<path d="M199.882 23.3511C199.882 23.4346 199.867 23.5111 199.79 23.5569C199.637 23.399 199.756 23.3735 199.882 23.3511Z" fill="black"/>
</g>
<path d="M53.1487 53.322C50.1123 53.322 47.3377 52.6727 44.8248 51.3741C42.3642 50.0755 40.401 48.1796 38.9352 45.6863C37.5217 43.1411 36.8149 40.0504 36.8149 36.4144C36.8149 32.8303 37.574 29.7397 39.0922 27.1425C40.6105 24.4934 42.626 22.4676 45.1389 21.0651C47.7041 19.6627 50.5049 18.9614 53.5413 18.9614C56.5778 18.9614 59.143 19.6627 61.2371 21.0651C63.3311 22.4157 64.9279 24.0259 66.0273 25.8959L65.5561 27.1425L66.2628 20.286H73.0162V52.5428H65.7131V44.128L66.4984 45.998C66.289 46.5174 65.8178 47.1927 65.0849 48.0237C64.4043 48.8029 63.462 49.608 62.2579 50.4391C61.1062 51.2702 59.7712 51.9714 58.253 52.5428C56.7348 53.0623 55.0334 53.322 53.1487 53.322ZM55.1119 47.3225C56.9442 47.3225 58.5933 46.9849 60.0591 46.3096C61.525 45.6344 62.7291 44.6994 63.6714 43.5047C64.6661 42.258 65.3467 40.7777 65.7131 39.0635V32.7524C65.2943 31.1941 64.5614 29.8436 63.5144 28.7008C62.4673 27.5061 61.2109 26.5971 59.745 25.9738C58.2792 25.2985 56.6563 24.9609 54.8763 24.9609C52.9393 24.9609 51.1593 25.4284 49.5364 26.3634C47.9135 27.2983 46.6047 28.5969 45.6101 30.2591C44.6677 31.9213 44.1965 33.8692 44.1965 36.1027C44.1965 38.1805 44.6939 40.0764 45.6886 41.7905C46.6833 43.5047 48.0182 44.8552 49.6935 45.8421C51.3687 46.8291 53.1749 47.3225 55.1119 47.3225Z" fill="black"/>
<path d="M0 54.5887V0H19.0873C23.2533 0 26.7047 0.772984 29.4414 2.31895C32.1782 3.86492 34.2263 5.97952 35.586 8.66275C36.9456 11.3282 37.6254 14.3313 37.6254 17.672C37.6254 21.0305 36.9369 24.0514 35.5598 26.7346C34.2002 29.4001 32.1433 31.5147 29.3891 33.0784C26.6524 34.6244 23.2098 35.3974 19.0611 35.3974H5.93535V28.4138H18.329C20.9611 28.4138 23.0965 27.9518 24.735 27.0278C26.3735 26.086 27.5763 24.8066 28.3433 23.1895C29.1102 21.5725 29.4937 19.7333 29.4937 17.672C29.4937 15.6107 29.1102 13.7804 28.3433 12.1812C27.5763 10.5819 26.3648 9.32912 24.7088 8.42286C23.0703 7.51661 20.9088 7.06348 18.2244 7.06348H8.0794V54.5887H0Z" fill="black"/>
<path d="M87.9015 54.5887L76.0831 13.6472H84.1625L92.0327 43.7136H92.4249L100.321 13.6472H108.401L116.245 43.5803H116.637L124.455 13.6472H132.534L120.742 54.5887H112.767L104.609 25.0287H104.008L95.8502 54.5887H87.9015Z" fill="black"/>
<path d="M165.631 23.6427L158.545 24.9221C158.249 23.9981 157.778 23.1184 157.133 22.2833C156.506 21.4481 155.651 20.764 154.571 20.2309C153.49 19.6978 152.139 19.4312 150.518 19.4312C148.304 19.4312 146.456 19.9377 144.975 20.9505C143.493 21.9456 142.752 23.234 142.752 24.8155C142.752 26.1837 143.249 27.2855 144.243 28.1206C145.236 28.9558 146.84 29.64 149.054 30.173L155.434 31.6657C159.129 32.5364 161.883 33.878 163.696 35.6906C165.509 37.5031 166.415 39.8576 166.415 42.754C166.415 45.2063 165.718 47.3919 164.323 49.3111C162.946 51.2124 161.02 52.7051 158.545 53.789C156.087 54.873 153.237 55.415 149.995 55.415C145.498 55.415 141.828 54.4376 138.987 52.483C136.146 50.5105 134.403 47.7118 133.758 44.0868L141.314 42.914C141.785 44.9219 142.752 46.4413 144.217 47.4719C145.681 48.4848 147.589 48.9912 149.943 48.9912C152.505 48.9912 154.553 48.4492 156.087 47.3653C157.621 46.2636 158.388 44.9219 158.388 43.3404C158.388 42.061 157.917 40.9859 156.976 40.1152C156.052 39.2445 154.632 38.587 152.714 38.1428L145.916 36.6235C142.168 35.7527 139.397 34.3667 137.601 32.4653C135.823 30.564 134.934 28.1562 134.934 25.2419C134.934 22.8252 135.597 20.7106 136.922 18.8981C138.246 17.0856 140.077 15.6729 142.412 14.66C144.748 13.6294 147.424 13.1141 150.439 13.1141C154.78 13.1141 158.196 14.0736 160.689 15.9928C163.182 17.8941 164.829 20.4441 165.631 23.6427Z" fill="black"/>
<path d="M224.787 53.7624V12.8209H232.291V19.4845H232.788C233.625 17.2278 234.993 15.4686 236.893 14.2069C238.793 12.9275 241.068 12.2878 243.717 12.2878C246.402 12.2878 248.651 12.9275 250.463 14.2069C252.294 15.4863 253.645 17.2455 254.516 19.4845H254.935C255.893 17.2989 257.418 15.5574 259.51 14.2602C261.602 12.9453 264.095 12.2878 266.988 12.2878C270.631 12.2878 273.603 13.4517 275.904 15.7795C278.223 18.1074 279.382 21.6169 279.382 26.3081V53.7624H271.564V27.0544C271.564 24.2824 270.823 22.2744 269.341 21.0305C267.86 19.7866 266.091 19.1647 264.034 19.1647C261.489 19.1647 259.51 19.9643 258.098 21.5636C256.686 23.1451 255.98 25.1797 255.98 27.6675V53.7624H248.189V26.548C248.189 24.3268 247.509 22.5409 246.149 21.1904C244.789 19.8399 243.02 19.1647 240.841 19.1647C239.36 19.1647 237.991 19.5645 236.736 20.3641C235.499 21.146 234.496 22.2388 233.729 23.6427C232.98 25.0465 232.605 26.6724 232.605 28.5205V53.7624H224.787Z" fill="black"/>
<path d="M302.752 54.5887C298.795 54.5887 295.387 53.7268 292.528 52.0032C289.687 50.2617 287.491 47.8184 285.939 44.6732C284.405 41.5101 283.638 37.8052 283.638 33.5582C283.638 29.3645 284.405 25.6684 285.939 22.4699C287.491 19.2713 289.652 16.7746 292.424 14.9799C295.213 13.1852 298.472 12.2878 302.203 12.2878C304.469 12.2878 306.665 12.6698 308.792 13.4339C310.918 14.198 312.827 15.3975 314.518 17.0323C316.209 18.6671 317.542 20.7906 318.518 23.4028C319.494 25.9972 319.983 29.1513 319.983 32.8652V35.6906H288.057V29.7199H312.322C312.322 27.6231 311.903 25.7661 311.066 24.1491C310.23 22.5143 309.053 21.226 307.537 20.2842C306.038 19.3424 304.277 18.8715 302.255 18.8715C300.059 18.8715 298.141 19.4223 296.503 20.5241C294.882 21.608 293.626 23.0296 292.737 24.7888C291.866 26.5302 291.43 28.4227 291.43 30.4662V35.1308C291.43 37.8673 291.901 40.1952 292.842 42.1143C293.801 44.0335 295.134 45.4995 296.843 46.5123C298.551 47.5074 300.547 48.005 302.83 48.005C304.312 48.005 305.663 47.7918 306.883 47.3653C308.103 46.921 309.158 46.2636 310.047 45.3928C310.936 44.5221 311.616 43.447 312.086 42.1676L319.486 43.527C318.893 45.7482 317.83 47.694 316.296 49.3644C314.779 51.017 312.871 52.3053 310.57 53.2293C308.286 54.1356 305.68 54.5887 302.752 54.5887Z" fill="black"/>
<defs>
<clipPath id="clip0_515_155">
<rect width="37" height="41.8972" fill="white" transform="translate(175 13)"/>
</clipPath>
</defs>
</svg>
