<svg width="427" height="60" viewBox="0 0 427 60" fill="none" xmlns="http://www.w3.org/2000/svg">
<path d="M196.438 53.6083C192.83 53.6083 190.013 52.8804 187.988 51.4246C185.984 49.9688 184.728 47.7218 184.222 44.6836C184.137 43.7552 184.327 43.0589 184.791 42.5948C185.256 42.1306 185.931 41.8985 186.817 41.8985C187.703 41.8985 188.347 42.1095 188.747 42.5315C189.169 42.9535 189.454 43.6075 189.602 44.4937C189.918 45.9495 190.594 46.9517 191.627 47.5002C192.682 48.0277 194.286 48.2914 196.438 48.2914H205.553C208.274 48.2914 210.121 47.8062 211.091 46.8356C212.083 45.844 212.579 44.0084 212.579 41.3288C212.579 38.6071 212.072 36.7504 211.059 35.7588C210.047 34.746 208.211 34.2397 205.553 34.2397H197.704C193.716 34.2397 190.752 33.2691 188.811 31.328C186.891 29.3658 185.931 26.3909 185.931 22.4032C185.931 18.4367 186.88 15.4934 188.779 13.5734C190.699 11.6534 193.653 10.6934 197.641 10.6934H205.173C208.528 10.6934 211.154 11.3791 213.053 12.7506C214.973 14.122 216.186 16.2213 216.693 19.0485C216.819 19.9558 216.651 20.652 216.186 21.1373C215.722 21.6015 215.026 21.8336 214.098 21.8336C213.254 21.8336 212.621 21.612 212.199 21.169C211.777 20.7259 211.502 20.0824 211.376 19.2384C211.038 17.9936 210.395 17.1496 209.445 16.7066C208.496 16.2424 207.072 16.0103 205.173 16.0103H197.641C195.109 16.0103 193.41 16.4639 192.545 17.3712C191.68 18.2573 191.248 19.9347 191.248 22.4032C191.248 24.8929 191.691 26.6019 192.577 27.5302C193.463 28.4586 195.172 28.9228 197.704 28.9228H205.553C209.709 28.9228 212.8 29.9355 214.826 31.961C216.872 33.9865 217.895 37.1091 217.895 41.3288C217.895 45.5275 216.883 48.629 214.857 50.6334C212.832 52.6167 209.73 53.6083 205.553 53.6083H196.438Z" fill="#091D2C"/>
<path d="M239.662 53.6083C234.83 53.6083 231.254 52.4584 228.933 50.1587C226.633 47.8378 225.484 44.2616 225.484 39.43V24.8718C225.484 19.998 226.633 16.4112 228.933 14.1114C231.233 11.7906 234.788 10.6512 239.599 10.6934H247.258C251.224 10.6934 254.252 11.5163 256.341 13.162C258.429 14.7866 259.642 17.3606 259.98 20.8841C260.107 21.7703 259.938 22.4454 259.474 22.9096C259.01 23.3738 258.334 23.6059 257.448 23.6059C255.845 23.6059 254.916 22.7197 254.663 20.9474C254.452 19.0063 253.777 17.6982 252.638 17.0231C251.519 16.3479 249.726 16.0103 247.258 16.0103H239.599C237.362 15.9892 235.6 16.2424 234.313 16.7699C233.047 17.2973 232.14 18.2151 231.592 19.5233C231.064 20.8103 230.8 22.5931 230.8 24.8718V39.43C230.8 41.6875 231.064 43.4598 231.592 44.7468C232.14 46.0339 233.058 46.9517 234.345 47.5002C235.632 48.0277 237.404 48.2914 239.662 48.2914H247.258C249.726 48.2914 251.519 47.9539 252.638 47.2787C253.777 46.5824 254.452 45.2743 254.663 43.3543C254.916 41.582 255.845 40.6959 257.448 40.6959C258.334 40.6959 259.01 40.928 259.474 41.3921C259.938 41.8563 260.107 42.5315 259.98 43.4176C259.642 46.9622 258.429 49.5468 256.341 51.1714C254.252 52.796 251.224 53.6083 247.258 53.6083H239.662Z" fill="#091D2C"/>
<path d="M281.203 53.6083C276.371 53.6083 272.795 52.4584 270.474 50.1587C268.174 47.8378 267.024 44.2616 267.024 39.43V24.8085C267.024 19.9347 268.185 16.3584 270.506 14.0798C272.826 11.78 276.392 10.6512 281.203 10.6934H288.798C293.651 10.6934 297.227 11.8433 299.527 14.1431C301.827 16.4428 302.977 20.0191 302.977 24.8718V39.43C302.977 44.2616 301.827 47.8378 299.527 50.1587C297.227 52.4584 293.651 53.6083 288.798 53.6083H281.203ZM281.203 48.2914H288.798C291.056 48.2914 292.828 48.0277 294.115 47.5002C295.402 46.9517 296.309 46.0339 296.837 44.7468C297.385 43.4598 297.66 41.6875 297.66 39.43V24.8718C297.66 22.6353 297.385 20.8736 296.837 19.5866C296.309 18.2995 295.402 17.3817 294.115 16.8332C292.828 16.2846 291.056 16.0103 288.798 16.0103H281.203C278.966 15.9892 277.204 16.2424 275.917 16.7699C274.63 17.2973 273.713 18.2046 273.164 19.4916C272.615 20.7786 272.341 22.5509 272.341 24.8085V39.43C272.341 41.6875 272.605 43.4598 273.132 44.7468C273.681 46.0339 274.599 46.9517 275.886 47.5002C277.173 48.0277 278.945 48.2914 281.203 48.2914Z" fill="#091D2C"/>
<path d="M325.924 53.6083C321.092 53.6083 317.516 52.4584 315.195 50.1587C312.895 47.8378 311.746 44.2616 311.746 39.43V13.3519C311.746 12.4657 311.967 11.8011 312.41 11.358C312.853 10.915 313.518 10.6934 314.404 10.6934C315.29 10.6934 315.955 10.915 316.398 11.358C316.841 11.8011 317.062 12.4657 317.062 13.3519V39.43C317.062 41.6875 317.326 43.4598 317.854 44.7468C318.402 46.0339 319.32 46.9517 320.607 47.5002C321.894 48.0277 323.666 48.2914 325.924 48.2914H333.52C335.777 48.2914 337.549 48.0277 338.836 47.5002C340.123 46.9517 341.031 46.0339 341.558 44.7468C342.107 43.4598 342.381 41.6875 342.381 39.43V13.3519C342.381 12.4657 342.603 11.8011 343.046 11.358C343.489 10.915 344.153 10.6934 345.039 10.6934C345.926 10.6934 346.59 10.915 347.033 11.358C347.476 11.8011 347.698 12.4657 347.698 13.3519V39.43C347.698 44.2616 346.548 47.8378 344.248 50.1587C341.948 52.4584 338.372 53.6083 333.52 53.6083H325.924Z" fill="#091D2C"/>
<path d="M370.841 53.6083C369.954 53.6083 369.29 53.3868 368.847 52.9437C368.404 52.5006 368.182 51.836 368.182 50.9499V16.0736H355.903C355.017 16.0736 354.352 15.8521 353.909 15.409C353.466 14.9659 353.244 14.3013 353.244 13.4152C353.244 12.529 353.466 11.8644 353.909 11.4213C354.352 10.9783 355.017 10.7567 355.903 10.7567H385.779C386.665 10.7567 387.329 10.9783 387.772 11.4213C388.215 11.8644 388.437 12.529 388.437 13.4152C388.437 14.3013 388.215 14.9659 387.772 15.409C387.329 15.8521 386.665 16.0736 385.779 16.0736H373.499V50.9499C373.499 51.7938 373.267 52.4479 372.803 52.9121C372.36 53.3762 371.706 53.6083 370.841 53.6083Z" fill="#091D2C"/>
<path d="M405.069 53.6083C401.461 53.6083 398.644 52.8804 396.619 51.4246C394.614 49.9688 393.359 47.7218 392.852 44.6836C392.768 43.7552 392.958 43.0589 393.422 42.5948C393.886 42.1306 394.561 41.8985 395.448 41.8985C396.334 41.8985 396.977 42.1095 397.378 42.5315C397.8 42.9535 398.085 43.6075 398.233 44.4937C398.549 45.9495 399.224 46.9517 400.258 47.5002C401.313 48.0277 402.917 48.2914 405.069 48.2914H414.183C416.905 48.2914 418.751 47.8062 419.722 46.8356C420.713 45.844 421.209 44.0084 421.209 41.3288C421.209 38.6071 420.703 36.7504 419.69 35.7588C418.677 34.746 416.842 34.2397 414.183 34.2397H406.335C402.347 34.2397 399.382 33.2691 397.441 31.328C395.521 29.3658 394.561 26.3909 394.561 22.4032C394.561 18.4367 395.511 15.4934 397.41 13.5734C399.33 11.6534 402.284 10.6934 406.271 10.6934H413.803C417.158 10.6934 419.785 11.3791 421.684 12.7506C423.604 14.122 424.817 16.2213 425.323 19.0485C425.45 19.9558 425.281 20.652 424.817 21.1373C424.353 21.6015 423.657 21.8336 422.728 21.8336C421.884 21.8336 421.251 21.612 420.829 21.169C420.407 20.7259 420.133 20.0824 420.007 19.2384C419.669 17.9936 419.025 17.1496 418.076 16.7066C417.127 16.2424 415.702 16.0103 413.803 16.0103H406.271C403.739 16.0103 402.041 16.4639 401.176 17.3712C400.311 18.2573 399.878 19.9347 399.878 22.4032C399.878 24.8929 400.321 26.6019 401.208 27.5302C402.094 28.4586 403.803 28.9228 406.335 28.9228H414.183C418.34 28.9228 421.431 29.9355 423.456 31.961C425.503 33.9865 426.526 37.1091 426.526 41.3288C426.526 45.5275 425.513 48.629 423.488 50.6334C421.462 52.6167 418.361 53.6083 414.183 53.6083H405.069Z" fill="#091D2C"/>
<path fill-rule="evenodd" clip-rule="evenodd" d="M40.1866 2.57018C40.3167 2.24833 40.5073 1.95741 40.7468 1.71482C40.9863 1.47223 41.2698 1.28297 41.5805 1.15835C41.8911 1.03373 42.2225 0.976325 42.5547 0.989565C42.8869 1.00281 43.2132 1.08642 43.514 1.2354C43.8148 1.38438 44.0839 1.59567 44.3053 1.85663C44.5266 2.11758 44.6957 2.42283 44.8023 2.75411C44.9318 3.15659 44.9544 3.5894 44.8923 4.00026C44.8638 4.18915 44.821 4.45773 44.7625 4.79026C44.6457 5.454 44.4649 6.37961 44.2063 7.43949C43.8178 9.03165 43.2304 11.0279 42.3722 12.9155C47.4574 17.0236 49.319 24.2371 46.5725 30.563C45.6962 32.7829 44.2125 37.4945 43.0512 42.1218C42.4694 44.4397 41.9828 46.6809 41.6954 48.5332C41.5515 49.4603 41.4634 50.2536 41.4332 50.8897C41.414 51.2928 41.4194 51.6405 41.427 51.8819C41.6308 53.304 41.4734 54.7835 40.6944 56.1325C39.6882 57.8749 37.9747 58.8282 36.1855 59.2759C34.4061 59.7211 32.3485 59.7281 30.2114 59.4375C25.9243 58.8546 20.8026 57.0027 15.7835 54.1057C10.7643 51.2087 6.59933 47.7003 3.95078 44.28C2.63048 42.5751 1.60773 40.7901 1.10374 39.0268C0.596958 37.2539 0.566062 35.2938 1.57228 33.5514C2.41027 32.1004 3.73875 31.1966 5.19304 30.6763C6.18829 30.2265 7.31419 29.5026 8.49001 28.5788C9.99356 27.3975 11.4598 25.983 12.7269 24.6436C13.6629 23.6542 15.2239 23.6106 16.2136 24.5464C17.2032 25.4821 17.2468 27.0427 16.3108 28.0321C15.5458 28.8407 14.6916 29.6986 13.7786 30.5399C17.6807 31.3318 22.1207 33.0603 26.4831 35.5783C30.9926 38.1811 34.8126 41.2774 37.4628 44.36C37.7033 43.2385 37.9761 42.0792 38.2666 40.9216C39.4643 36.1498 41.0191 31.1852 42.0019 28.7077L42.0177 28.6677L42.035 28.6283C44.2952 23.464 42.0067 17.5767 37.0738 15.419C35.7313 14.8317 34.3308 14.5766 32.9546 14.6151C31.593 14.6533 30.4583 13.5807 30.4201 12.2194C30.3819 10.8582 31.4548 9.72375 32.8164 9.6856C34.559 9.63678 36.329 9.89979 38.0452 10.5044C38.6321 9.13208 39.0842 7.62228 39.4139 6.27094C39.6421 5.3355 39.802 4.51724 39.9043 3.93595C39.9847 3.47898 40.0114 3.00362 40.1866 2.57018ZM6.56789 35.4346C6.67207 35.3945 6.77602 35.3529 6.87975 35.3098C6.99932 35.2683 7.13186 35.2288 7.27885 35.192C8.24799 34.9495 9.62922 34.8934 11.3904 35.1329C12.8077 35.3256 14.3886 35.6984 16.0732 36.2495C15.7438 37.0073 15.5734 37.8122 15.5085 38.5473C15.343 40.4192 15.7511 42.5406 16.6375 44.5438C17.5238 46.547 18.8193 48.2759 20.316 49.4129C21.734 50.4899 23.8659 51.3865 26.0008 50.4424C28.1356 49.4984 28.9062 47.3182 29.0629 45.5448C29.1301 44.785 29.1027 43.9841 28.9873 43.1666C31.2592 44.9201 33.1039 46.7293 34.4153 48.4228C35.5034 49.8278 36.1454 51.0518 36.42 52.0121C36.6917 52.9627 36.553 53.4407 36.4224 53.6668C36.2919 53.8928 35.9471 54.2519 34.9878 54.4919C34.0187 54.7344 32.6374 54.7905 30.8762 54.551C27.3667 54.0738 22.8544 52.4926 18.2499 49.8349C13.6454 47.1772 10.0195 44.061 7.85132 41.2612C6.76325 39.8561 6.12121 38.6322 5.84671 37.6718C5.575 36.7213 5.71368 36.2433 5.84424 36.0172C5.93544 35.8592 6.13117 35.6364 6.56789 35.4346ZM23.3003 45.4862C22.5857 44.9434 21.7631 43.9374 21.1487 42.5489C20.5343 41.1603 20.3432 39.8751 20.4222 38.9813C20.4584 38.5706 20.534 38.3394 20.5917 38.2175C20.7207 38.2568 20.9427 38.3565 21.2711 38.6059C21.9857 39.1487 22.8083 40.1546 23.4227 41.5432C24.0371 42.9318 24.2282 44.217 24.1492 45.1108C24.1129 45.5214 24.0373 45.7527 23.9796 45.8745C23.8507 45.8352 23.6287 45.7356 23.3003 45.4862ZM23.9111 45.987C23.9063 45.9911 23.9043 45.9936 23.9043 45.9936C23.9043 45.9936 23.905 45.9933 23.9061 45.9922C23.9073 45.9911 23.9089 45.9894 23.9111 45.987ZM20.4624 38.1926C20.456 38.1925 20.4529 38.1932 20.4529 38.1932C20.4542 38.1932 20.4578 38.1932 20.4624 38.1926Z" fill="#091D2C"/>
<path d="M28.5649 15.2996C27.0951 11.9779 23.2919 10.4401 20.07 11.8648C16.8482 13.2896 15.4278 17.1374 16.8975 20.4591C18.3672 23.7808 22.1705 25.3186 25.3924 23.8938C28.6142 22.4691 30.0346 18.6213 28.5649 15.2996Z" fill="#D84E00"/>
<path d="M59.2532 54.0239C57.4902 54.0239 56.6086 53.1424 56.6086 51.3794V13.9778C56.6086 12.2148 57.4902 11.3333 59.2532 11.3333C61.0162 11.3333 61.8977 12.2148 61.8977 13.9778V48.7348H79.3392C81.1022 48.7348 81.9838 49.6163 81.9838 51.3794C81.9838 53.1424 81.1022 54.0239 79.3392 54.0239H59.2532Z" fill="#091D2C"/>
<path d="M93.3185 54.0239C92.416 54.0239 91.7444 53.814 91.3036 53.3943C90.8839 52.9535 90.674 52.2819 90.674 51.3794V14.0408C90.674 13.1173 90.8839 12.4457 91.3036 12.0259C91.7444 11.6061 92.416 11.3962 93.3185 11.3962C94.242 11.3962 94.9137 11.6061 95.3334 12.0259C95.7532 12.4457 95.9631 13.1173 95.9631 14.0408V51.3794C95.9631 52.2819 95.7532 52.9535 95.3334 53.3943C94.9137 53.814 94.242 54.0239 93.3185 54.0239Z" fill="#091D2C"/>
<path d="M119.732 54.0239C116.143 54.0239 113.341 53.2998 111.326 51.8516C109.332 50.4034 108.083 48.1681 107.58 45.1458C107.496 44.2223 107.685 43.5297 108.146 43.0679C108.608 42.6062 109.28 42.3753 110.161 42.3753C111.043 42.3753 111.683 42.5852 112.082 43.005C112.502 43.4247 112.785 44.0754 112.932 44.9569C113.247 46.4051 113.918 47.402 114.947 47.9478C115.996 48.4725 117.591 48.7348 119.732 48.7348H128.799C131.507 48.7348 133.343 48.2521 134.309 47.2866C135.295 46.3002 135.788 44.4742 135.788 41.8086C135.788 39.1011 135.285 37.2541 134.277 36.2676C133.27 35.2602 131.444 34.7565 128.799 34.7565H120.991C117.025 34.7565 114.076 33.791 112.145 31.8601C110.235 29.9081 109.28 26.9487 109.28 22.9819C109.28 19.0361 110.224 16.1082 112.113 14.1982C114.023 12.2883 116.962 11.3333 120.928 11.3333H128.421C131.759 11.3333 134.372 12.0154 136.261 13.3797C138.171 14.7439 139.377 16.8323 139.881 19.6447C140.007 20.5472 139.839 21.2399 139.377 21.7226C138.916 22.1843 138.223 22.4152 137.299 22.4152C136.46 22.4152 135.83 22.1948 135.411 21.7541C134.991 21.3133 134.718 20.6732 134.592 19.8336C134.256 18.5953 133.616 17.7558 132.672 17.315C131.727 16.8533 130.31 16.6224 128.421 16.6224H120.928C118.41 16.6224 116.72 17.0736 115.86 17.9761C114.999 18.8577 114.569 20.5263 114.569 22.9819C114.569 25.4586 115.01 27.1586 115.891 28.0821C116.773 29.0056 118.473 29.4674 120.991 29.4674H128.799C132.934 29.4674 136.009 30.4748 138.024 32.4897C140.059 34.5046 141.077 37.6109 141.077 41.8086C141.077 45.9853 140.07 49.0706 138.055 51.0645C136.04 53.0375 132.955 54.0239 128.799 54.0239H119.732Z" fill="#091D2C"/>
<path d="M162.302 54.0239C161.42 54.0239 160.759 53.8035 160.318 53.3628C159.878 52.922 159.657 52.2609 159.657 51.3794V16.6854H147.442C146.56 16.6854 145.899 16.465 145.458 16.0242C145.018 15.5835 144.797 14.9223 144.797 14.0408C144.797 13.1593 145.018 12.4981 145.458 12.0574C145.899 11.6166 146.56 11.3962 147.442 11.3962H177.162C178.043 11.3962 178.704 11.6166 179.145 12.0574C179.586 12.4981 179.806 13.1593 179.806 14.0408C179.806 14.9223 179.586 15.5835 179.145 16.0242C178.704 16.465 178.043 16.6854 177.162 16.6854H164.946V51.3794C164.946 52.2189 164.715 52.8696 164.254 53.3313C163.813 53.793 163.162 54.0239 162.302 54.0239Z" fill="#091D2C"/>
</svg>
