<svg width="52" height="96" viewBox="0 0 52 96" fill="none" xmlns="http://www.w3.org/2000/svg">
<g clip-path="url(#clip0_2_6)">
<path d="M-1.4549 0.457547C5.3141 0.397461 12.0286 1.5784 18.3052 3.93293C24.5818 6.28747 30.2976 9.76949 35.1262 14.1802C39.9549 18.5909 43.8018 23.8439 46.4474 29.6393C49.093 35.4346 50.4854 41.6589 50.5451 47.9566C50.6048 54.2544 49.3307 60.5023 46.7955 66.3437C44.2603 72.185 40.5137 77.5054 35.7695 82.0011C31.0254 86.4968 25.3766 90.0797 19.1457 92.5452C12.9148 95.0108 6.22388 96.3107 -0.545122 96.3708L-0.636099 86.7795C4.7791 86.7314 10.1319 85.6915 15.1166 83.719C20.1013 81.7466 24.6203 78.8802 28.4156 75.2837C32.211 71.6872 35.2083 67.4309 37.2364 62.7578C39.2646 58.0847 40.2839 53.0863 40.2361 48.0481C40.1883 43.0099 39.0744 38.0305 36.9579 33.3942C34.8414 28.7579 31.7639 24.5555 27.901 21.027C24.0381 17.4984 19.4654 14.7128 14.4441 12.8292C9.42287 10.9456 4.05128 10.0008 -1.36392 10.0489L-1.4549 0.457547Z" fill="#41411A"/>
<path d="M-0.270711 15.3592C4.49191 15.3405 9.21185 16.1947 13.6196 17.8732C18.0274 19.5516 22.0367 22.0214 25.4185 25.1414C28.8004 28.2614 31.4887 31.9706 33.3298 36.0573C35.1709 40.1439 36.1289 44.5279 36.1489 48.959C36.169 53.39 35.2508 57.7814 33.4468 61.8823C31.6428 65.9832 28.9882 69.7134 25.6347 72.8599C22.2812 76.0063 18.2945 78.5074 13.9021 80.2204C9.50968 81.9333 4.79764 82.8246 0.035023 82.8432L0.00444993 76.0948C3.81455 76.0799 7.58417 75.3669 11.0981 73.9965C14.612 72.6262 17.8014 70.6253 20.4842 68.1081C23.167 65.591 25.2906 62.6068 26.7339 59.3261C28.1771 56.0454 28.9116 52.5323 28.8956 48.9874C28.8795 45.4426 28.1132 41.9354 26.6403 38.6661C25.1674 35.3968 23.0168 32.4294 20.3113 29.9334C17.6058 27.4373 14.3983 25.4615 10.8721 24.1188C7.34591 22.776 3.56996 22.0926 -0.240137 22.1076L-0.270711 15.3592Z" fill="#41411A"/>
<path d="M-0.0486674 25.4671C3.14593 25.4546 6.31189 26.0276 9.26847 27.1534C12.225 28.2793 14.9143 29.9359 17.1828 32.0287C19.4512 34.1215 21.2544 36.6095 22.4893 39.3507C23.7243 42.0918 24.3669 45.0325 24.3803 48.0047C24.3938 50.9769 23.7779 53.9224 22.5678 56.6732C21.3577 59.4239 19.5772 61.926 17.3278 64.0365C15.0784 66.147 12.4042 67.8247 9.45793 68.9737C6.51167 70.1227 3.351 70.7205 0.156408 70.733L0.135901 66.2064C2.69158 66.1964 5.22011 65.7182 7.57712 64.799C9.93414 63.8798 12.0735 62.5377 13.873 60.8492C15.6725 59.1608 17.097 57.1592 18.065 54.9586C19.0331 52.758 19.5258 50.4015 19.515 48.0237C19.5043 45.646 18.9902 43.2935 18.0023 41.1006C17.0143 38.9076 15.5717 36.9172 13.757 35.243C11.9422 33.5687 9.79081 32.2434 7.42555 31.3428C5.06029 30.4421 2.52752 29.9837 -0.0281596 29.9937L-0.0486674 25.4671Z" fill="#41411A"/>
</g>
<defs>
<clipPath id="clip0_2_6">
<rect width="52" height="96" fill="white"/>
</clipPath>
</defs>
</svg>
